# xmcd
#
# Track frame offsets:
#	187
#	19872
#	41270
#	66522
#	84675
#	103950
#	123740
#	146477
#	169797
#	190080
#
# Disc length: 2860 seconds
#
# Revision: 1
# Processed by: cddbd v1.5.1PL0 Copyright (c) Steve Scherf et al.
# Submitted via: CDex 1.50Beta5
#
DISCID=8e0b2a0a
DTITLE=詩子 - YES
DYEAR=1991
DGENRE=Pop
TTITLE0=時間をこえて
TTITLE1=1-2-3
TTITLE2=心の宝物
TTITLE3=抱いて
TTITLE4=FOR YOU
TTITLE5=虹の彼方へ
TTITLE6=TELL ME YOU LOVE ME
TTITLE7=SO LONG
TTITLE8=気まぐれシンデレラ
TTITLE9=眠る君に
EXTD=
EXTT0=
EXTT1=
EXTT2=
EXTT3=
EXTT4=
EXTT5=
EXTT6=
EXTT7=
EXTT8=
EXTT9=
PLAYORDER=
